# xmcd
#
# Track frame offsets: 
#        150
#        19180
#        33916
#        49283
#        65467
#        80601
#        94126
#        108817
#        122412
#        142949
#        159202
#        178938
#        196123
#        208437
#        223901
#        243138
#        260257
#        275531
#
# Disc length: 3910 seconds
#
# Revision: 2
# Processed by: cddbd v1.5.2PL0 Copyright (c) Steve Scherf et al.
# Submitted via: ExactAudioCopy v0.99pb5
#
DISCID=fc0f4412
DTITLE=Various Artist - Hott Country 064
DYEAR=1900
DGENRE=Country
TTITLE0=Lonestar - I'm Already There
TTITLE1=Alabama - Will You Marry Me
TTITLE2=Rascal Flatts - While You Loved Me
TTITLE3=Lee Ann Womack - Why They Call It Falling
TTITLE4=Billy Ray Cyrus - Crazy 'Bout You Baby
TTITLE5=Keith Urban - Where The Blacktop Ends
TTITLE6=John Anderson - The Big Revival
TTITLE7=Monia - I'm All Over That
TTITLE8=Kasey Chambers - The Captain
TTITLE9=Tammy Cochran - Angels In Waiting
TTITLE10=SHeDAISY - Still Holding Out For You
TTITLE11=John Rich - Forever Loving You
TTITLE12=Shirley Myers - Do You Love Me
TTITLE13=K.T. Oslin - Live Close By, Visit Often
TTITLE14=Mark Wills - Loving Every Minute
TTITLE15=Darryl Worley - Second Wind
TTITLE16=Kentucky Headhunters - Jessico
TTITLE17=Alison Krauss - I'll Fly Away
EXTD=
EXTT0=
EXTT1=
EXTT2=
EXTT3=
EXTT4=
EXTT5=
EXTT6=
EXTT7=
EXTT8=
EXTT9=
EXTT10=
EXTT11=
EXTT12=
EXTT13=
EXTT14=
EXTT15=
EXTT16=
EXTT17=
PLAYORDER=
